# xmcd
#
# Track frame offsets:
#	150
#	18986
#	39229
#	65483
#	98202
#	121748
#	139113
#	160672
#	178388
#
# Disc length: 2660 seconds
#
# Revision: 14
# Processed by: cddbd v1.5.2PL0 Copyright (c) Steve Scherf et al.
# Submitted via: Jack! The Knife 20 Magnifico
#
DISCID=700a6209
DTITLE=Dio - Dream Evil
DYEAR=1987
DGENRE=Metal
TTITLE0=Night People
TTITLE1=Dream Evil
TTITLE2=Sunset Superman
TTITLE3=All The Fools Sailed Away
TTITLE4=Naked In The Rain
TTITLE5=Overlove
TTITLE6=I Could Have Been A Dreamer
TTITLE7=Faces In The Window
TTITLE8=When A Woman Cries
EXTD=Ronnie James Dio
EXTT0=Appice, Bain, Dio, Goldy, Schnell
EXTT1=Dio, Goldy
EXTT2=Appice, Bain, Dio, Goldy, Schnell
EXTT3=Dio, Goldy
EXTT4=Ronnie James Dio
EXTT5=Appice, Dio, Goldy
EXTT6=Dio, Goldy
EXTT7=Appice, Bain, Dio, Goldy, Schnell
EXTT8=Appice, Bain, Dio, Goldy, Schnell
PLAYORDER=
